<?xml version="1.0" encoding="UTF-8" standalone="no"?>
<!-- Created with Inkscape (http://www.inkscape.org/) -->

<svg
   xmlns:dc="http://purl.org/dc/elements/1.1/"
   xmlns:cc="http://creativecommons.org/ns#"
   xmlns:rdf="http://www.w3.org/1999/02/22-rdf-syntax-ns#"
   xmlns:svg="http://www.w3.org/2000/svg"
   xmlns="http://www.w3.org/2000/svg"
   xmlns:sodipodi="http://sodipodi.sourceforge.net/DTD/sodipodi-0.dtd"
   xmlns:inkscape="http://www.inkscape.org/namespaces/inkscape"
   id="svg2"
   version="1.1"
   inkscape:version="0.91 r13725"
   width="1700"
   height="1200"
   viewBox="0 0 1700 1200"
   sodipodi:docname="smug-flowey.svg">
  <metadata
     id="metadata8">
    <rdf:RDF>
      <cc:Work
         rdf:about="">
        <dc:format>image/svg+xml</dc:format>
        <dc:type
           rdf:resource="http://purl.org/dc/dcmitype/StillImage" />
        <dc:title></dc:title>
      </cc:Work>
    </rdf:RDF>
  </metadata>
  <defs
     id="defs6" />
  <sodipodi:namedview
     pagecolor="#ffffff"
     bordercolor="#666666"
     borderopacity="1"
     objecttolerance="10"
     gridtolerance="10"
     guidetolerance="10"
     inkscape:pageopacity="0"
     inkscape:pageshadow="2"
     inkscape:window-width="1440"
     inkscape:window-height="876"
     id="namedview4"
     showgrid="false"
     inkscape:zoom="0.19666667"
     inkscape:cx="850"
     inkscape:cy="600"
     inkscape:window-x="0"
     inkscape:window-y="24"
     inkscape:window-maximized="1"
     inkscape:current-layer="svg2" />
  <path
     style="fill:#000000"
     d="m 515.25423,1044.9152 0,-49.99997 -50,0 -50,0 0,-99.99998 0,-100 -50,0 -50,0 0,-50 0,-50 -100,0 -100,0 0,-50 0,-50 50,0 50,0 0,-50 0,-50 50,0 50,0 0,100 0,100 50,0 50,0 0,50 0,50 450,0 450.00007,0 0,-50 0,-50 50,0 50,0 0,-100 0,-100 50,0 50,0 0,50 0,50 50,0 50,0 0,50 0,50 -100,0 -100,0 0,50 0,50 -50,0 -50,0 0,100 0,99.99998 -50,0 -50,0 0,49.99997 0,50 -350.00007,0 -350,0 0,-50 z m 700.00007,-99.99994 0,-50.00001 -350.00007,0 -350,0 0,50.00001 0,49.99997 350,0 350.00007,0 0,-49.99997 z m -700.00007,-400.00001 0,-50 -50,0 -50,0 0,-50 0,-50 200,0 200,0 0,50 0,50 -50,0 -50,0 0,50 0,50 -100,0 -100,0 0,-50 z m 500.00007,0 0,-50 -50.00007,0 -50,0 0,-50 0,-50 200.00007,0 200,0 0,50 0,50 -50,0 -50,0 0,50 0,50 -100,0 -100,0 0,-50 z m -500.00007,-300 0,-50 -50,0 -50,0 0,-50 0,-49.999996 50,0 50,0 0,49.999996 0,50 100,0 100,0 0,-50 0,-49.999996 50,0 50,0 0,49.999996 0,50 -50,0 -50,0 0,50 0,50 -100,0 -100,0 0,-50 z m 500.00007,0 0,-50 -50.00007,0 -50,0 0,-50 0,-49.999996 50,0 50.00007,0 0,49.999996 0,50 100,0 100,0 0,-50 0,-49.999996 50,0 50,0 0,49.999996 0,50 -50,0 -50,0 0,50 0,50 -100,0 -100,0 0,-50 z"
     id="path3338"
     inkscape:connector-curvature="0" />
</svg>
