<?xml version="1.0" encoding="UTF-8" standalone="no"?>
<!-- Created with Inkscape (http://www.inkscape.org/) -->

<svg
   xmlns:dc="http://purl.org/dc/elements/1.1/"
   xmlns:cc="http://creativecommons.org/ns#"
   xmlns:rdf="http://www.w3.org/1999/02/22-rdf-syntax-ns#"
   xmlns:svg="http://www.w3.org/2000/svg"
   xmlns="http://www.w3.org/2000/svg"
   xmlns:sodipodi="http://sodipodi.sourceforge.net/DTD/sodipodi-0.dtd"
   xmlns:inkscape="http://www.inkscape.org/namespaces/inkscape"
   id="svg2"
   version="1.1"
   inkscape:version="0.91 r13725"
   width="1500"
   height="947"
   viewBox="0 0 1500 947"
   sodipodi:docname="spooky-flowey.svg">
  <metadata
     id="metadata8">
    <rdf:RDF>
      <cc:Work
         rdf:about="">
        <dc:format>image/svg+xml</dc:format>
        <dc:type
           rdf:resource="http://purl.org/dc/dcmitype/StillImage" />
        <dc:title></dc:title>
      </cc:Work>
    </rdf:RDF>
  </metadata>
  <defs
     id="defs6" />
  <sodipodi:namedview
     pagecolor="#ffffff"
     bordercolor="#666666"
     borderopacity="1"
     objecttolerance="10"
     gridtolerance="10"
     guidetolerance="10"
     inkscape:pageopacity="0"
     inkscape:pageshadow="2"
     inkscape:window-width="655"
     inkscape:window-height="480"
     id="namedview4"
     showgrid="false"
     inkscape:zoom="0.17111984"
     inkscape:cx="891.42657"
     inkscape:cy="501.89075"
     inkscape:window-x="0"
     inkscape:window-y="24"
     inkscape:window-maximized="0"
     inkscape:current-layer="svg2" />
  <path
     style="fill:#000000"
     d="m 728.53157,834.34386 0,-39.5 -39.5,0 -39.5,0 0,-39.5 0,-39.5 -39.5,0 -39.5,0 0,39.5 0,39.5 -39.5,0 -39.5,0 0,-39.5 0,-39.5 -39.5,0 -39.5,0 0,-39.5 0,-39.5 -39.5,0 -39.5,0 0,-39.5 0,-39.5 -118.5,0 -118.5,0 0,-78.5 0,-78.5 39.5,0 39.5,0 0,39.5 0,39.5 158,0 158,0 0,78.5 0,78.5 79,0 79,0 0,39.5 0,39.5 39.5,0 39.5,0 0,-39.5 0,-39.5 78.5,0 78.5,0 0,39.5 0,39.5 39.49998,0 39.5,0 0,-39.5 0,-39.5 39.49995,0 39.5,0 0,-39.5 0,-39.5 39.5,0 39.5,0 0,-39 0,-39 118.5,0 118.5,0 0,-39.5 0,-39.5 39.5,0 39.5,0 0,78.5 0,78.5 -118.5,0 -118.5,0 0,39.5 0,39.5 -39.5,0 -39.5,0 0,79 0,79 -39.5,0 -39.5,0 0,-39.5 0,-39.5 -39.5,0 -39.49995,0 0,39.5 0,39.5 -39.5,0 -39.49998,0 0,39.5 0,39.5 -78.5,0 -78.5,0 0,-39.5 z m -395,-473 0,-39.5 -39.5,0 -39.5,0 0,-39.5 0,-39.5 39.5,0 39.5,0 0,-39.5 0,-39.5 39.5,0 39.5,0 0,-39.5 0,-39.499998 118.5,0 118.5,0 0,39.499998 0,39.5 39.5,0 39.5,0 0,79 0,79 -39.5,0 -39.5,0 0,39.5 0,39.5 -158,0 -158,0 0,-39.5 z m 237,-79 0,-39.5 -39.5,0 -39.5,0 0,39.5 0,39.5 39.5,0 39.5,0 0,-39.5 z m 315,79 0,-39.5 -39.5,0 -39.5,0 0,-79 0,-79 39.5,0 39.5,0 0,-39.5 0,-39.499998 118.49993,0 118.5,0 0,39.499998 0,39.5 39.5,0 39.5,0 0,39.5 0,39.5 39.5,0 39.5,0 0,39.5 0,39.5 -39.5,0 -39.5,0 0,39.5 0,39.5 -158,0 -157.99993,0 0,-39.5 z m 157.99993,-79 0,-39.5 -39.5,0 -39.49995,0 0,39.5 0,39.5 39.49995,0 39.5,0 0,-39.5 z"
     id="path3338"
     inkscape:connector-curvature="0" />
</svg>
