<?xml version="1.0" encoding="UTF-8" standalone="no"?>
<!-- Created with Inkscape (http://www.inkscape.org/) -->

<svg
   xmlns:dc="http://purl.org/dc/elements/1.1/"
   xmlns:cc="http://creativecommons.org/ns#"
   xmlns:rdf="http://www.w3.org/1999/02/22-rdf-syntax-ns#"
   xmlns:svg="http://www.w3.org/2000/svg"
   xmlns="http://www.w3.org/2000/svg"
   xmlns:sodipodi="http://sodipodi.sourceforge.net/DTD/sodipodi-0.dtd"
   xmlns:inkscape="http://www.inkscape.org/namespaces/inkscape"
   id="svg2"
   version="1.1"
   inkscape:version="0.91 r13725"
   width="1500"
   height="1500"
   viewBox="0 0 1500 1500"
   sodipodi:docname="pick.svg">
  <metadata
     id="metadata8">
    <rdf:RDF>
      <cc:Work
         rdf:about="">
        <dc:format>image/svg+xml</dc:format>
        <dc:type
           rdf:resource="http://purl.org/dc/dcmitype/StillImage" />
        <dc:title></dc:title>
      </cc:Work>
    </rdf:RDF>
  </metadata>
  <defs
     id="defs6" />
  <sodipodi:namedview
     pagecolor="#ffffff"
     bordercolor="#666666"
     borderopacity="1"
     objecttolerance="10"
     gridtolerance="10"
     guidetolerance="10"
     inkscape:pageopacity="0"
     inkscape:pageshadow="2"
     inkscape:window-width="640"
     inkscape:window-height="480"
     id="namedview4"
     showgrid="false"
     inkscape:zoom="0.15733333"
     inkscape:cx="750"
     inkscape:cy="750"
     inkscape:window-x="0"
     inkscape:window-y="24"
     inkscape:window-maximized="0"
     inkscape:current-layer="svg2" />
  <path
     style="fill:#000000"
     d="m 737.64407,1418.324 c -28.99483,-5.2753 -47.24729,-12.2062 -70,-26.5806 -106.67358,-67.3928 -289.00356,-303.9273 -422.06426,-547.53884 -22.29041,-40.80997 -51.393,-99.84593 -66.1914,-134.27236 -28.93699,-67.31792 -42.4784,-102.11916 -58.75519,-151 -24.781877,-74.42255 -37.438187,-122.11449 -42.592867,-160.5 -2.47236,-18.41108 -2.50737,-55.77772 -0.067,-71.5 8.03716,-51.7795 30.102207,-89.19886 68.694867,-116.49726 38.57647,-27.28696 132.35945,-55.46449 249.47582,-74.95616 113.98408,-18.97037 156.38628,-23.77583 234,-26.51934 214.10153,-7.56811 339.74538,0.36499 489.99996,30.93841 58.4525,11.89375 136.0762,31.68576 176.4383,44.98709 42.2284,13.9164 69.0117,27.34236 89.6519,44.94086 24.9143,21.24268 44.0594,59.28463 49.6248,98.6064 1.8918,13.36615 1.5794,52.77461 -0.5549,70 -11.2725,90.97787 -50.7425,206.60291 -120.6714,353.5 -21.9013,46.00726 -68.1341,136.94277 -73.974,145.5 -1.5015,2.2 -8.2588,13.675 -15.0163,25.5 -47.2624,82.7049 -138.9826,212.2637 -220.8782,312 -64.98278,79.1392 -109.08868,124.1124 -145.62016,148.4835 -19.71774,13.1542 -46.05641,24.6753 -72.5,31.7131 -10.3891,2.7649 -13.1905,3.089 -29,3.3553 -9.625,0.1621 -18.625,0.09 -20,-0.1601 z m -154.24623,-738.6418 0.25378,-128.75 -69.50378,0 -69.50377,0 0,39.5 0,39.5 29.5,0 29.5,0 0,88.83333 c 0,48.85834 0.30515,89.13849 0.67811,89.51145 0.37296,0.37296 18.26046,0.56046 39.75,0.41667 l 39.07189,-0.26145 0.25377,-128.75 z m -118.75377,29.76488 0,-39.48512 -29.75,-0.26488 -29.75,-0.26488 -0.25602,-79.25 -0.25602,-79.25 89.50602,0 89.50602,0 0,-39.5 0,-39.5 -129,0 -129,0 0,158.5 0,158.5 69.5,0 69.5,0 0,-39.48512 z m 245,-119.01488 0,-158.5 -39.5,0 -39.5,0 0,158.5 0,158.5 39.5,0 39.5,0 0,-158.5 z m 179,102.25782 0,-56.24219 -23.00017,-23.0158 -23.00017,-23.0158 23.00017,-22.98386 23.00017,-22.98386 0,-56.25816 0,-56.25815 -40,0 -40,0 0,39.74537 0,39.74537 -39.50006,39.50932 -39.50006,39.50932 39.50006,39.49056 39.50006,39.49057 0,39.75474 0,39.75475 40,0 40,0 0,-56.24218 z m 126.00003,-62.75782 0,-119 49.7453,0 49.7453,0 -39.7453,39.75469 -39.7454,39.75469 39.5,39.49056 39.5001,39.49057 0,39.75474 0,39.75475 40,0 40,0 0,-56.24218 0,-56.24219 -23.0002,-23.0158 -23.0001,-23.0158 23.0001,-22.98386 23.0002,-22.98386 0,-56.25816 0,-56.25815 -129,0 -129.00005,0 0,158.5 0,158.5 39.5,0 39.50005,0 0,-119 z"
     id="path3338"
     inkscape:connector-curvature="0" />
</svg>
