<?xml version="1.0" encoding="UTF-8" standalone="no"?>
<!-- Created with Inkscape (http://www.inkscape.org/) -->

<svg
   xmlns:dc="http://purl.org/dc/elements/1.1/"
   xmlns:cc="http://creativecommons.org/ns#"
   xmlns:rdf="http://www.w3.org/1999/02/22-rdf-syntax-ns#"
   xmlns:svg="http://www.w3.org/2000/svg"
   xmlns="http://www.w3.org/2000/svg"
   xmlns:sodipodi="http://sodipodi.sourceforge.net/DTD/sodipodi-0.dtd"
   xmlns:inkscape="http://www.inkscape.org/namespaces/inkscape"
   id="svg2"
   version="1.1"
   inkscape:version="0.91 r13725"
   width="1864"
   height="2144"
   viewBox="0 0 1864 2144"
   sodipodi:docname="pick.svg">
  <metadata
     id="metadata8">
    <rdf:RDF>
      <cc:Work
         rdf:about="">
        <dc:format>image/svg+xml</dc:format>
        <dc:type
           rdf:resource="http://purl.org/dc/dcmitype/StillImage" />
        <dc:title></dc:title>
      </cc:Work>
    </rdf:RDF>
  </metadata>
  <defs
     id="defs6" />
  <sodipodi:namedview
     pagecolor="#ffffff"
     bordercolor="#666666"
     borderopacity="1"
     objecttolerance="10"
     gridtolerance="10"
     guidetolerance="10"
     inkscape:pageopacity="0"
     inkscape:pageshadow="2"
     inkscape:window-width="1440"
     inkscape:window-height="876"
     id="namedview4"
     showgrid="false"
     inkscape:zoom="0.31133806"
     inkscape:cx="1134.7049"
     inkscape:cy="864.54662"
     inkscape:window-x="0"
     inkscape:window-y="24"
     inkscape:window-maximized="1"
     inkscape:current-layer="svg2" />
  <path
     style="fill:#000000"
     d="m 916.1358,2102.417 c -1.65,-0.2289 -7.275,-0.9113 -12.5,-1.5165 -18.8893,-2.188 -36.9236,-7.917 -59.5,-18.9017 -33.8659,-16.4778 -64.05119,-39.8236 -109.87929,-84.9827 C 571.81345,1836.9445 403.5412,1589.4483 245.05888,1277.5 129.26413,1049.5757 70.166207,889.49742 51.054057,752 c -2.21935,-15.96654 -3.04201,-53.19911 -2.2316,-101 1.6258,-95.89701 5.55792,-127.99174 21.87449,-178.54425 20.78069,-64.38336 47.422343,-114.74595 84.933933,-160.55661 75.92665,-92.72467 179.47121,-158.56945 327.00495,-207.94495 93.04915,-31.141005 220.57256,-58.118947 302,-63.888965 48.08687,-3.40748 103.59717,-5.045481 170.99997,-5.045884 74.8437,-4.48e-4 103.2578,1.395865 153,7.518651 96.3622,11.861273 209.2664,37.495686 288.5,65.502728 58.6204,20.72081 157.7662,69.30312 202.1023,99.03186 21.6526,14.5188 46.5025,35.88911 75.4247,64.86342 44.2275,44.30714 65.4936,73.8634 91.0641,126.564 30.4019,62.65788 48.1723,131.60168 53.8701,209 1.3147,17.858 1.3241,73.59054 0.016,92.5 -6.0287,87.12769 -25.4239,174.78494 -59.1877,267.5 -38.8006,106.5459 -118.8587,276.1639 -205.5519,435.5 -98.0917,180.2858 -195.7345,329.2335 -298.6036,455.5 -73.5488,90.2774 -138.5351,158.4193 -184.2807,193.2289 -20.7645,15.8006 -47.5449,31.2316 -67.0746,38.6489 -10.7054,4.0658 -25.5703,8.0127 -38.2784,10.1635 -9.0203,1.5267 -43.7234,2.8156 -50.5,1.8757 z M 666.63583,923.5 l 0,-207.5 -111.5,0 -111.5,0 0,64 0,64 48,0 48,0 0,143.5 0,143.5 63.5,0 63.5,0 0,-207.5 z m -191,47.5 0,-64 -48.00382,0 -48.00381,0 0.25381,-127.25 0.25382,-127.25 143.25,-0.2534 143.25,-0.2534 0,-63.4966 0,-63.4966 -207,0 -207,0 0,255 0,255 111.5,0 111.5,0 0,-64 z m 381.99997,-191 0,-255 -63.49997,0 -63.5,0 0,255 0,255 63.5,0 63.49997,0 0,-255 z m 287,163.75507 0,-91.24493 -36.2449,-36.25507 L 1072.1461,780 l 36.2448,-36.25507 36.2449,-36.25507 0,-91.24493 0,-91.24493 -63.5,0 -63.5,0 0,63.74709 0,63.7471 -63.747,63.7529 L 890.1417,780 l 63.7471,63.75291 63.747,63.7529 0,63.7471 0,63.74709 63.5,0 63.5,0 0,-91.24493 z M 1335.8832,843.75 l 0.2526,-191.25 79.25,-0.25602 c 43.5875,-0.14081 79.25,0.0829 79.25,0.49707 0,0.4142 -28.4612,29.21691 -63.2471,64.00603 l -63.247,63.25294 63.747,63.7529 63.7471,63.75289 0,63.7471 0,63.74709 63.5,0 63.5,0 0,-91.24493 0,-91.24493 -36.2449,-36.25507 L 1550.1461,780 l 36.2448,-36.25507 36.2449,-36.25507 0,-91.24493 0,-91.24493 -207,0 -207,0 0,255 0,255 63.4974,0 63.4975,0 0.2525,-191.25 z"
     id="path3338"
     inkscape:connector-curvature="0" />
</svg>
